<mxfile host="Electron" agent="Mozilla/5.0 (Macintosh; Intel Mac OS X 10_15_7) AppleWebKit/537.36 (KHTML, like Gecko) draw.io/26.0.16 Chrome/132.0.6834.196 Electron/34.2.0 Safari/537.36" version="26.0.16">
  <diagram id="C5RBs43oDa-KdzZeNtuy" name="Page-1">
    <mxGraphModel dx="2879" dy="2713" grid="1" gridSize="10" guides="1" tooltips="1" connect="1" arrows="1" fold="1" page="1" pageScale="1" pageWidth="827" pageHeight="1169" math="0" shadow="0">
      <root>
        <mxCell id="WIyWlLk6GJQsqaUBKTNV-0" />
        <mxCell id="WIyWlLk6GJQsqaUBKTNV-1" parent="WIyWlLk6GJQsqaUBKTNV-0" />
        <mxCell id="uWM1lojZhdCbzZa3SQIx-49" style="edgeStyle=orthogonalEdgeStyle;rounded=0;orthogonalLoop=1;jettySize=auto;html=1;entryX=0.5;entryY=0;entryDx=0;entryDy=0;" edge="1" parent="WIyWlLk6GJQsqaUBKTNV-1" source="uWM1lojZhdCbzZa3SQIx-0" target="uWM1lojZhdCbzZa3SQIx-41">
          <mxGeometry relative="1" as="geometry" />
        </mxCell>
        <mxCell id="uWM1lojZhdCbzZa3SQIx-0" value="Player" style="swimlane;fontStyle=1;align=center;verticalAlign=top;childLayout=stackLayout;horizontal=1;startSize=26;horizontalStack=0;resizeParent=1;resizeParentMax=0;resizeLast=0;collapsible=1;marginBottom=0;whiteSpace=wrap;html=1;" vertex="1" parent="WIyWlLk6GJQsqaUBKTNV-1">
          <mxGeometry x="310" y="270" width="160" height="170" as="geometry" />
        </mxCell>
        <mxCell id="uWM1lojZhdCbzZa3SQIx-1" value="+Points:int&lt;div&gt;+Level:int&lt;/div&gt;&lt;div&gt;+PlayerBuffs&lt;/div&gt;&lt;div&gt;+ReviveCounter:int&lt;/div&gt;" style="text;strokeColor=none;fillColor=none;align=left;verticalAlign=top;spacingLeft=4;spacingRight=4;overflow=hidden;rotatable=0;points=[[0,0.5],[1,0.5]];portConstraint=eastwest;whiteSpace=wrap;html=1;" vertex="1" parent="uWM1lojZhdCbzZa3SQIx-0">
          <mxGeometry y="26" width="160" height="64" as="geometry" />
        </mxCell>
        <mxCell id="uWM1lojZhdCbzZa3SQIx-2" value="" style="line;strokeWidth=1;fillColor=none;align=left;verticalAlign=middle;spacingTop=-1;spacingLeft=3;spacingRight=3;rotatable=0;labelPosition=right;points=[];portConstraint=eastwest;strokeColor=inherit;" vertex="1" parent="uWM1lojZhdCbzZa3SQIx-0">
          <mxGeometry y="90" width="160" height="8" as="geometry" />
        </mxCell>
        <mxCell id="uWM1lojZhdCbzZa3SQIx-3" value="+ levelUp()&lt;div&gt;+heal(amount)&lt;/div&gt;&lt;div&gt;+LoseHealth(amount)&lt;/div&gt;&lt;div&gt;+SetPlayerID(id)&lt;/div&gt;" style="text;strokeColor=none;fillColor=none;align=left;verticalAlign=top;spacingLeft=4;spacingRight=4;overflow=hidden;rotatable=0;points=[[0,0.5],[1,0.5]];portConstraint=eastwest;whiteSpace=wrap;html=1;" vertex="1" parent="uWM1lojZhdCbzZa3SQIx-0">
          <mxGeometry y="98" width="160" height="72" as="geometry" />
        </mxCell>
        <mxCell id="uWM1lojZhdCbzZa3SQIx-50" style="edgeStyle=orthogonalEdgeStyle;rounded=0;orthogonalLoop=1;jettySize=auto;html=1;entryX=0.5;entryY=0;entryDx=0;entryDy=0;" edge="1" parent="WIyWlLk6GJQsqaUBKTNV-1" source="uWM1lojZhdCbzZa3SQIx-4" target="uWM1lojZhdCbzZa3SQIx-45">
          <mxGeometry relative="1" as="geometry" />
        </mxCell>
        <mxCell id="uWM1lojZhdCbzZa3SQIx-4" value="Boss" style="swimlane;fontStyle=1;align=center;verticalAlign=top;childLayout=stackLayout;horizontal=1;startSize=26;horizontalStack=0;resizeParent=1;resizeParentMax=0;resizeLast=0;collapsible=1;marginBottom=0;whiteSpace=wrap;html=1;" vertex="1" parent="WIyWlLk6GJQsqaUBKTNV-1">
          <mxGeometry x="800" y="270" width="160" height="150" as="geometry" />
        </mxCell>
        <mxCell id="uWM1lojZhdCbzZa3SQIx-5" value="-bossBuffs: BossBuffs" style="text;strokeColor=none;fillColor=none;align=left;verticalAlign=top;spacingLeft=4;spacingRight=4;overflow=hidden;rotatable=0;points=[[0,0.5],[1,0.5]];portConstraint=eastwest;whiteSpace=wrap;html=1;" vertex="1" parent="uWM1lojZhdCbzZa3SQIx-4">
          <mxGeometry y="26" width="160" height="64" as="geometry" />
        </mxCell>
        <mxCell id="uWM1lojZhdCbzZa3SQIx-6" value="" style="line;strokeWidth=1;fillColor=none;align=left;verticalAlign=middle;spacingTop=-1;spacingLeft=3;spacingRight=3;rotatable=0;labelPosition=right;points=[];portConstraint=eastwest;strokeColor=inherit;" vertex="1" parent="uWM1lojZhdCbzZa3SQIx-4">
          <mxGeometry y="90" width="160" height="8" as="geometry" />
        </mxCell>
        <mxCell id="uWM1lojZhdCbzZa3SQIx-7" value="+AddBuff(type,value,duration)&lt;div&gt;+LoseHealth(amount)&lt;/div&gt;&lt;div&gt;+Dies()&lt;/div&gt;" style="text;strokeColor=none;fillColor=none;align=left;verticalAlign=top;spacingLeft=4;spacingRight=4;overflow=hidden;rotatable=0;points=[[0,0.5],[1,0.5]];portConstraint=eastwest;whiteSpace=wrap;html=1;" vertex="1" parent="uWM1lojZhdCbzZa3SQIx-4">
          <mxGeometry y="98" width="160" height="52" as="geometry" />
        </mxCell>
        <mxCell id="uWM1lojZhdCbzZa3SQIx-12" style="edgeStyle=orthogonalEdgeStyle;rounded=0;orthogonalLoop=1;jettySize=auto;html=1;entryX=0.5;entryY=0;entryDx=0;entryDy=0;" edge="1" parent="WIyWlLk6GJQsqaUBKTNV-1" source="uWM1lojZhdCbzZa3SQIx-8" target="uWM1lojZhdCbzZa3SQIx-0">
          <mxGeometry relative="1" as="geometry" />
        </mxCell>
        <mxCell id="uWM1lojZhdCbzZa3SQIx-8" value="PlayerManager" style="swimlane;fontStyle=1;align=center;verticalAlign=top;childLayout=stackLayout;horizontal=1;startSize=26;horizontalStack=0;resizeParent=1;resizeParentMax=0;resizeLast=0;collapsible=1;marginBottom=0;whiteSpace=wrap;html=1;" vertex="1" parent="WIyWlLk6GJQsqaUBKTNV-1">
          <mxGeometry x="285" y="82" width="210" height="140" as="geometry" />
        </mxCell>
        <mxCell id="uWM1lojZhdCbzZa3SQIx-9" value="-players:List&amp;lt;Player&amp;gt;&lt;div&gt;+currentPlayerID:int&lt;/div&gt;&lt;div&gt;+DeadPlayers:List&amp;lt;Player&amp;gt;&lt;/div&gt;" style="text;strokeColor=none;fillColor=none;align=left;verticalAlign=top;spacingLeft=4;spacingRight=4;overflow=hidden;rotatable=0;points=[[0,0.5],[1,0.5]];portConstraint=eastwest;whiteSpace=wrap;html=1;" vertex="1" parent="uWM1lojZhdCbzZa3SQIx-8">
          <mxGeometry y="26" width="210" height="64" as="geometry" />
        </mxCell>
        <mxCell id="uWM1lojZhdCbzZa3SQIx-10" value="" style="line;strokeWidth=1;fillColor=none;align=left;verticalAlign=middle;spacingTop=-1;spacingLeft=3;spacingRight=3;rotatable=0;labelPosition=right;points=[];portConstraint=eastwest;strokeColor=inherit;" vertex="1" parent="uWM1lojZhdCbzZa3SQIx-8">
          <mxGeometry y="90" width="210" height="8" as="geometry" />
        </mxCell>
        <mxCell id="uWM1lojZhdCbzZa3SQIx-11" value="-InitialisePlayers()&lt;div&gt;+SpawnHomeObjectAtHome(player,index)&lt;/div&gt;" style="text;strokeColor=none;fillColor=none;align=left;verticalAlign=top;spacingLeft=4;spacingRight=4;overflow=hidden;rotatable=0;points=[[0,0.5],[1,0.5]];portConstraint=eastwest;whiteSpace=wrap;html=1;" vertex="1" parent="uWM1lojZhdCbzZa3SQIx-8">
          <mxGeometry y="98" width="210" height="42" as="geometry" />
        </mxCell>
        <mxCell id="uWM1lojZhdCbzZa3SQIx-14" value="0..*" style="text;html=1;align=center;verticalAlign=middle;resizable=0;points=[];autosize=1;strokeColor=none;fillColor=none;" vertex="1" parent="WIyWlLk6GJQsqaUBKTNV-1">
          <mxGeometry x="355" y="240" width="40" height="30" as="geometry" />
        </mxCell>
        <mxCell id="uWM1lojZhdCbzZa3SQIx-31" style="edgeStyle=orthogonalEdgeStyle;rounded=0;orthogonalLoop=1;jettySize=auto;html=1;entryX=0.5;entryY=0;entryDx=0;entryDy=0;" edge="1" parent="WIyWlLk6GJQsqaUBKTNV-1" source="uWM1lojZhdCbzZa3SQIx-15" target="uWM1lojZhdCbzZa3SQIx-8">
          <mxGeometry relative="1" as="geometry" />
        </mxCell>
        <mxCell id="uWM1lojZhdCbzZa3SQIx-32" style="edgeStyle=orthogonalEdgeStyle;rounded=0;orthogonalLoop=1;jettySize=auto;html=1;entryX=0.5;entryY=0;entryDx=0;entryDy=0;" edge="1" parent="WIyWlLk6GJQsqaUBKTNV-1" source="uWM1lojZhdCbzZa3SQIx-15" target="uWM1lojZhdCbzZa3SQIx-23">
          <mxGeometry relative="1" as="geometry">
            <Array as="points">
              <mxPoint x="390" />
              <mxPoint x="880" />
            </Array>
          </mxGeometry>
        </mxCell>
        <mxCell id="uWM1lojZhdCbzZa3SQIx-139" style="edgeStyle=orthogonalEdgeStyle;rounded=0;orthogonalLoop=1;jettySize=auto;html=1;" edge="1" parent="WIyWlLk6GJQsqaUBKTNV-1" source="uWM1lojZhdCbzZa3SQIx-15" target="uWM1lojZhdCbzZa3SQIx-135">
          <mxGeometry relative="1" as="geometry">
            <Array as="points">
              <mxPoint x="390" />
              <mxPoint x="640" />
            </Array>
          </mxGeometry>
        </mxCell>
        <mxCell id="uWM1lojZhdCbzZa3SQIx-15" value="GameManager" style="swimlane;fontStyle=1;align=center;verticalAlign=top;childLayout=stackLayout;horizontal=1;startSize=26;horizontalStack=0;resizeParent=1;resizeParentMax=0;resizeLast=0;collapsible=1;marginBottom=0;whiteSpace=wrap;html=1;fillColor=#f8cecc;strokeColor=#b85450;" vertex="1" parent="WIyWlLk6GJQsqaUBKTNV-1">
          <mxGeometry x="295" y="-230" width="190" height="180" as="geometry" />
        </mxCell>
        <mxCell id="uWM1lojZhdCbzZa3SQIx-16" value="-currentState:GameState&lt;div&gt;+IsResumingMovement:bool&lt;/div&gt;&lt;div&gt;+OnDiceRollResultForCombat&lt;/div&gt;" style="text;strokeColor=none;fillColor=none;align=left;verticalAlign=top;spacingLeft=4;spacingRight=4;overflow=hidden;rotatable=0;points=[[0,0.5],[1,0.5]];portConstraint=eastwest;whiteSpace=wrap;html=1;" vertex="1" parent="uWM1lojZhdCbzZa3SQIx-15">
          <mxGeometry y="26" width="190" height="64" as="geometry" />
        </mxCell>
        <mxCell id="uWM1lojZhdCbzZa3SQIx-17" value="" style="line;strokeWidth=1;fillColor=none;align=left;verticalAlign=middle;spacingTop=-1;spacingLeft=3;spacingRight=3;rotatable=0;labelPosition=right;points=[];portConstraint=eastwest;strokeColor=inherit;" vertex="1" parent="uWM1lojZhdCbzZa3SQIx-15">
          <mxGeometry y="90" width="190" height="8" as="geometry" />
        </mxCell>
        <mxCell id="uWM1lojZhdCbzZa3SQIx-18" value="-OnStateChanged(newState)&lt;div&gt;-StartTileAction()&lt;/div&gt;&lt;div&gt;+WinGameConditionAchieved()&lt;/div&gt;&lt;div&gt;-RoundEvent()&lt;/div&gt;&lt;div&gt;+SetupGame()&lt;/div&gt;" style="text;strokeColor=none;fillColor=none;align=left;verticalAlign=top;spacingLeft=4;spacingRight=4;overflow=hidden;rotatable=0;points=[[0,0.5],[1,0.5]];portConstraint=eastwest;whiteSpace=wrap;html=1;" vertex="1" parent="uWM1lojZhdCbzZa3SQIx-15">
          <mxGeometry y="98" width="190" height="82" as="geometry" />
        </mxCell>
        <mxCell id="uWM1lojZhdCbzZa3SQIx-30" style="edgeStyle=orthogonalEdgeStyle;rounded=0;orthogonalLoop=1;jettySize=auto;html=1;entryX=0.5;entryY=0;entryDx=0;entryDy=0;" edge="1" parent="WIyWlLk6GJQsqaUBKTNV-1" source="uWM1lojZhdCbzZa3SQIx-19" target="uWM1lojZhdCbzZa3SQIx-15">
          <mxGeometry relative="1" as="geometry" />
        </mxCell>
        <mxCell id="uWM1lojZhdCbzZa3SQIx-105" style="edgeStyle=orthogonalEdgeStyle;rounded=0;orthogonalLoop=1;jettySize=auto;html=1;entryX=0;entryY=0.5;entryDx=0;entryDy=0;" edge="1" parent="WIyWlLk6GJQsqaUBKTNV-1" source="uWM1lojZhdCbzZa3SQIx-19">
          <mxGeometry relative="1" as="geometry">
            <mxPoint x="590" y="-622" as="targetPoint" />
            <Array as="points">
              <mxPoint x="530" y="-410" />
              <mxPoint x="530" y="-622" />
            </Array>
          </mxGeometry>
        </mxCell>
        <mxCell id="uWM1lojZhdCbzZa3SQIx-19" value="GameConfigManager" style="swimlane;fontStyle=1;align=center;verticalAlign=top;childLayout=stackLayout;horizontal=1;startSize=26;horizontalStack=0;resizeParent=1;resizeParentMax=0;resizeLast=0;collapsible=1;marginBottom=0;whiteSpace=wrap;html=1;" vertex="1" parent="WIyWlLk6GJQsqaUBKTNV-1">
          <mxGeometry x="300" y="-475" width="180" height="134" as="geometry" />
        </mxCell>
        <mxCell id="uWM1lojZhdCbzZa3SQIx-20" value="-currentMode:GameMode&lt;div&gt;-currentQuizMode:QuizMode&lt;/div&gt;&lt;div&gt;-numOfPlayer:int&lt;/div&gt;&lt;div&gt;-quizTimeLimit:int&lt;/div&gt;&lt;div&gt;-boardNumber:int&lt;/div&gt;" style="text;strokeColor=none;fillColor=none;align=left;verticalAlign=top;spacingLeft=4;spacingRight=4;overflow=hidden;rotatable=0;points=[[0,0.5],[1,0.5]];portConstraint=eastwest;whiteSpace=wrap;html=1;" vertex="1" parent="uWM1lojZhdCbzZa3SQIx-19">
          <mxGeometry y="26" width="180" height="74" as="geometry" />
        </mxCell>
        <mxCell id="uWM1lojZhdCbzZa3SQIx-21" value="" style="line;strokeWidth=1;fillColor=none;align=left;verticalAlign=middle;spacingTop=-1;spacingLeft=3;spacingRight=3;rotatable=0;labelPosition=right;points=[];portConstraint=eastwest;strokeColor=inherit;" vertex="1" parent="uWM1lojZhdCbzZa3SQIx-19">
          <mxGeometry y="100" width="180" height="8" as="geometry" />
        </mxCell>
        <mxCell id="uWM1lojZhdCbzZa3SQIx-22" value="- InitialiseModeRules()" style="text;strokeColor=none;fillColor=none;align=left;verticalAlign=top;spacingLeft=4;spacingRight=4;overflow=hidden;rotatable=0;points=[[0,0.5],[1,0.5]];portConstraint=eastwest;whiteSpace=wrap;html=1;" vertex="1" parent="uWM1lojZhdCbzZa3SQIx-19">
          <mxGeometry y="108" width="180" height="26" as="geometry" />
        </mxCell>
        <mxCell id="uWM1lojZhdCbzZa3SQIx-27" style="edgeStyle=orthogonalEdgeStyle;rounded=0;orthogonalLoop=1;jettySize=auto;html=1;entryX=0.5;entryY=0;entryDx=0;entryDy=0;" edge="1" parent="WIyWlLk6GJQsqaUBKTNV-1" source="uWM1lojZhdCbzZa3SQIx-23" target="uWM1lojZhdCbzZa3SQIx-4">
          <mxGeometry relative="1" as="geometry" />
        </mxCell>
        <mxCell id="uWM1lojZhdCbzZa3SQIx-23" value="BossManager" style="swimlane;fontStyle=1;align=center;verticalAlign=top;childLayout=stackLayout;horizontal=1;startSize=26;horizontalStack=0;resizeParent=1;resizeParentMax=0;resizeLast=0;collapsible=1;marginBottom=0;whiteSpace=wrap;html=1;" vertex="1" parent="WIyWlLk6GJQsqaUBKTNV-1">
          <mxGeometry x="800" y="90" width="160" height="124" as="geometry" />
        </mxCell>
        <mxCell id="uWM1lojZhdCbzZa3SQIx-24" value="-bossObject:Boss&lt;div&gt;&lt;br&gt;&lt;/div&gt;" style="text;strokeColor=none;fillColor=none;align=left;verticalAlign=top;spacingLeft=4;spacingRight=4;overflow=hidden;rotatable=0;points=[[0,0.5],[1,0.5]];portConstraint=eastwest;whiteSpace=wrap;html=1;" vertex="1" parent="uWM1lojZhdCbzZa3SQIx-23">
          <mxGeometry y="26" width="160" height="64" as="geometry" />
        </mxCell>
        <mxCell id="uWM1lojZhdCbzZa3SQIx-25" value="" style="line;strokeWidth=1;fillColor=none;align=left;verticalAlign=middle;spacingTop=-1;spacingLeft=3;spacingRight=3;rotatable=0;labelPosition=right;points=[];portConstraint=eastwest;strokeColor=inherit;" vertex="1" parent="uWM1lojZhdCbzZa3SQIx-23">
          <mxGeometry y="90" width="160" height="8" as="geometry" />
        </mxCell>
        <mxCell id="uWM1lojZhdCbzZa3SQIx-26" value="-SpawnBoss()" style="text;strokeColor=none;fillColor=none;align=left;verticalAlign=top;spacingLeft=4;spacingRight=4;overflow=hidden;rotatable=0;points=[[0,0.5],[1,0.5]];portConstraint=eastwest;whiteSpace=wrap;html=1;" vertex="1" parent="uWM1lojZhdCbzZa3SQIx-23">
          <mxGeometry y="98" width="160" height="26" as="geometry" />
        </mxCell>
        <mxCell id="uWM1lojZhdCbzZa3SQIx-28" value="1" style="text;html=1;align=center;verticalAlign=middle;resizable=0;points=[];autosize=1;strokeColor=none;fillColor=none;" vertex="1" parent="WIyWlLk6GJQsqaUBKTNV-1">
          <mxGeometry x="850" y="208" width="30" height="30" as="geometry" />
        </mxCell>
        <mxCell id="uWM1lojZhdCbzZa3SQIx-29" value="1" style="text;html=1;align=center;verticalAlign=middle;resizable=0;points=[];autosize=1;strokeColor=none;fillColor=none;" vertex="1" parent="WIyWlLk6GJQsqaUBKTNV-1">
          <mxGeometry x="850" y="250" width="30" height="30" as="geometry" />
        </mxCell>
        <mxCell id="uWM1lojZhdCbzZa3SQIx-34" value="BoardGenerator" style="swimlane;fontStyle=1;align=center;verticalAlign=top;childLayout=stackLayout;horizontal=1;startSize=26;horizontalStack=0;resizeParent=1;resizeParentMax=0;resizeLast=0;collapsible=1;marginBottom=0;whiteSpace=wrap;html=1;" vertex="1" parent="WIyWlLk6GJQsqaUBKTNV-1">
          <mxGeometry x="590" y="-470" width="190" height="130" as="geometry" />
        </mxCell>
        <mxCell id="uWM1lojZhdCbzZa3SQIx-36" value="-boardLayoutPath:string&lt;div&gt;+BoardGenFinished: bool&lt;/div&gt;&lt;div&gt;-DirectionMap:Dictionary&lt;/div&gt;" style="text;strokeColor=none;fillColor=none;align=left;verticalAlign=top;spacingLeft=4;spacingRight=4;overflow=hidden;rotatable=0;points=[[0,0.5],[1,0.5]];portConstraint=eastwest;whiteSpace=wrap;html=1;" vertex="1" parent="uWM1lojZhdCbzZa3SQIx-34">
          <mxGeometry y="26" width="190" height="54" as="geometry" />
        </mxCell>
        <mxCell id="uWM1lojZhdCbzZa3SQIx-37" value="" style="line;strokeWidth=1;fillColor=none;align=left;verticalAlign=middle;spacingTop=-1;spacingLeft=3;spacingRight=3;rotatable=0;labelPosition=right;points=[];portConstraint=eastwest;strokeColor=inherit;" vertex="1" parent="uWM1lojZhdCbzZa3SQIx-34">
          <mxGeometry y="80" width="190" height="8" as="geometry" />
        </mxCell>
        <mxCell id="uWM1lojZhdCbzZa3SQIx-38" value="-GenerateBoardFromJSON()&lt;div&gt;-SetTileType(tile, type)&lt;/div&gt;" style="text;strokeColor=none;fillColor=none;align=left;verticalAlign=top;spacingLeft=4;spacingRight=4;overflow=hidden;rotatable=0;points=[[0,0.5],[1,0.5]];portConstraint=eastwest;whiteSpace=wrap;html=1;" vertex="1" parent="uWM1lojZhdCbzZa3SQIx-34">
          <mxGeometry y="88" width="190" height="42" as="geometry" />
        </mxCell>
        <mxCell id="uWM1lojZhdCbzZa3SQIx-41" value="PlayerMovement" style="swimlane;fontStyle=1;align=center;verticalAlign=top;childLayout=stackLayout;horizontal=1;startSize=26;horizontalStack=0;resizeParent=1;resizeParentMax=0;resizeLast=0;collapsible=1;marginBottom=0;whiteSpace=wrap;html=1;" vertex="1" parent="WIyWlLk6GJQsqaUBKTNV-1">
          <mxGeometry x="280" y="490" width="220" height="170" as="geometry" />
        </mxCell>
        <mxCell id="uWM1lojZhdCbzZa3SQIx-42" value="- id: int&lt;div&gt;- health: int&lt;/div&gt;&lt;div&gt;- points: int&lt;/div&gt;" style="text;strokeColor=none;fillColor=none;align=left;verticalAlign=top;spacingLeft=4;spacingRight=4;overflow=hidden;rotatable=0;points=[[0,0.5],[1,0.5]];portConstraint=eastwest;whiteSpace=wrap;html=1;" vertex="1" parent="uWM1lojZhdCbzZa3SQIx-41">
          <mxGeometry y="26" width="220" height="64" as="geometry" />
        </mxCell>
        <mxCell id="uWM1lojZhdCbzZa3SQIx-43" value="" style="line;strokeWidth=1;fillColor=none;align=left;verticalAlign=middle;spacingTop=-1;spacingLeft=3;spacingRight=3;rotatable=0;labelPosition=right;points=[];portConstraint=eastwest;strokeColor=inherit;" vertex="1" parent="uWM1lojZhdCbzZa3SQIx-41">
          <mxGeometry y="90" width="220" height="8" as="geometry" />
        </mxCell>
        <mxCell id="uWM1lojZhdCbzZa3SQIx-44" value="+MovePlayer(diceroll)&lt;div&gt;- HandlePvPEncounter()&lt;/div&gt;&lt;div&gt;-HandlePaths(availableDirections)&lt;/div&gt;&lt;div&gt;- MoveStepByStep()&lt;/div&gt;" style="text;strokeColor=none;fillColor=none;align=left;verticalAlign=top;spacingLeft=4;spacingRight=4;overflow=hidden;rotatable=0;points=[[0,0.5],[1,0.5]];portConstraint=eastwest;whiteSpace=wrap;html=1;" vertex="1" parent="uWM1lojZhdCbzZa3SQIx-41">
          <mxGeometry y="98" width="220" height="72" as="geometry" />
        </mxCell>
        <mxCell id="uWM1lojZhdCbzZa3SQIx-45" value="BossMovement" style="swimlane;fontStyle=1;align=center;verticalAlign=top;childLayout=stackLayout;horizontal=1;startSize=26;horizontalStack=0;resizeParent=1;resizeParentMax=0;resizeLast=0;collapsible=1;marginBottom=0;whiteSpace=wrap;html=1;" vertex="1" parent="WIyWlLk6GJQsqaUBKTNV-1">
          <mxGeometry x="800" y="490" width="160" height="160" as="geometry" />
        </mxCell>
        <mxCell id="uWM1lojZhdCbzZa3SQIx-46" value="-isMoving:bool&lt;div&gt;-remainingSteps:int&lt;/div&gt;" style="text;strokeColor=none;fillColor=none;align=left;verticalAlign=top;spacingLeft=4;spacingRight=4;overflow=hidden;rotatable=0;points=[[0,0.5],[1,0.5]];portConstraint=eastwest;whiteSpace=wrap;html=1;" vertex="1" parent="uWM1lojZhdCbzZa3SQIx-45">
          <mxGeometry y="26" width="160" height="64" as="geometry" />
        </mxCell>
        <mxCell id="uWM1lojZhdCbzZa3SQIx-47" value="" style="line;strokeWidth=1;fillColor=none;align=left;verticalAlign=middle;spacingTop=-1;spacingLeft=3;spacingRight=3;rotatable=0;labelPosition=right;points=[];portConstraint=eastwest;strokeColor=inherit;" vertex="1" parent="uWM1lojZhdCbzZa3SQIx-45">
          <mxGeometry y="90" width="160" height="8" as="geometry" />
        </mxCell>
        <mxCell id="uWM1lojZhdCbzZa3SQIx-48" value="-HandleBossCombat()&lt;div&gt;+MoveBoss(diceRoll)&lt;/div&gt;&lt;div&gt;-MoveStepByStep()&lt;/div&gt;" style="text;strokeColor=none;fillColor=none;align=left;verticalAlign=top;spacingLeft=4;spacingRight=4;overflow=hidden;rotatable=0;points=[[0,0.5],[1,0.5]];portConstraint=eastwest;whiteSpace=wrap;html=1;" vertex="1" parent="uWM1lojZhdCbzZa3SQIx-45">
          <mxGeometry y="98" width="160" height="62" as="geometry" />
        </mxCell>
        <mxCell id="uWM1lojZhdCbzZa3SQIx-52" value="TileManager" style="swimlane;fontStyle=1;align=center;verticalAlign=top;childLayout=stackLayout;horizontal=1;startSize=26;horizontalStack=0;resizeParent=1;resizeParentMax=0;resizeLast=0;collapsible=1;marginBottom=0;whiteSpace=wrap;html=1;" vertex="1" parent="WIyWlLk6GJQsqaUBKTNV-1">
          <mxGeometry x="860" y="-474" width="210" height="170" as="geometry" />
        </mxCell>
        <mxCell id="uWM1lojZhdCbzZa3SQIx-53" value="+tileContainer:GameObject&lt;div&gt;+highlightOverlayPrefab&lt;/div&gt;&lt;div&gt;+OnTileActionComplete:bool&lt;/div&gt;" style="text;strokeColor=none;fillColor=none;align=left;verticalAlign=top;spacingLeft=4;spacingRight=4;overflow=hidden;rotatable=0;points=[[0,0.5],[1,0.5]];portConstraint=eastwest;whiteSpace=wrap;html=1;" vertex="1" parent="uWM1lojZhdCbzZa3SQIx-52">
          <mxGeometry y="26" width="210" height="64" as="geometry" />
        </mxCell>
        <mxCell id="uWM1lojZhdCbzZa3SQIx-54" value="" style="line;strokeWidth=1;fillColor=none;align=left;verticalAlign=middle;spacingTop=-1;spacingLeft=3;spacingRight=3;rotatable=0;labelPosition=right;points=[];portConstraint=eastwest;strokeColor=inherit;" vertex="1" parent="uWM1lojZhdCbzZa3SQIx-52">
          <mxGeometry y="90" width="210" height="8" as="geometry" />
        </mxCell>
        <mxCell id="uWM1lojZhdCbzZa3SQIx-55" value="+getPlayerTileAction(tile)&lt;div&gt;+getBossTileAction(tile)&lt;/div&gt;&lt;div&gt;+DFSHighlight(tile,steps,currentpath)&lt;/div&gt;&lt;div&gt;-HighlightTile(tile)&lt;/div&gt;" style="text;strokeColor=none;fillColor=none;align=left;verticalAlign=top;spacingLeft=4;spacingRight=4;overflow=hidden;rotatable=0;points=[[0,0.5],[1,0.5]];portConstraint=eastwest;whiteSpace=wrap;html=1;" vertex="1" parent="uWM1lojZhdCbzZa3SQIx-52">
          <mxGeometry y="98" width="210" height="72" as="geometry" />
        </mxCell>
        <mxCell id="uWM1lojZhdCbzZa3SQIx-57" value="Tile" style="swimlane;fontStyle=1;align=center;verticalAlign=top;childLayout=stackLayout;horizontal=1;startSize=26;horizontalStack=0;resizeParent=1;resizeParentMax=0;resizeLast=0;collapsible=1;marginBottom=0;whiteSpace=wrap;html=1;" vertex="1" parent="WIyWlLk6GJQsqaUBKTNV-1">
          <mxGeometry x="1190" y="-474" width="200" height="140" as="geometry" />
        </mxCell>
        <mxCell id="uWM1lojZhdCbzZa3SQIx-58" value="+TilePlayerIDs:List&amp;lt;int&amp;gt;&lt;div&gt;+tileType: Tiletype&lt;/div&gt;&lt;div&gt;+BossOnTile:bool&lt;/div&gt;" style="text;strokeColor=none;fillColor=none;align=left;verticalAlign=top;spacingLeft=4;spacingRight=4;overflow=hidden;rotatable=0;points=[[0,0.5],[1,0.5]];portConstraint=eastwest;whiteSpace=wrap;html=1;" vertex="1" parent="uWM1lojZhdCbzZa3SQIx-57">
          <mxGeometry y="26" width="200" height="64" as="geometry" />
        </mxCell>
        <mxCell id="uWM1lojZhdCbzZa3SQIx-59" value="" style="line;strokeWidth=1;fillColor=none;align=left;verticalAlign=middle;spacingTop=-1;spacingLeft=3;spacingRight=3;rotatable=0;labelPosition=right;points=[];portConstraint=eastwest;strokeColor=inherit;" vertex="1" parent="uWM1lojZhdCbzZa3SQIx-57">
          <mxGeometry y="90" width="200" height="8" as="geometry" />
        </mxCell>
        <mxCell id="uWM1lojZhdCbzZa3SQIx-60" value="+GetConnectedTile(direction)&lt;div&gt;+GetTileType()&lt;/div&gt;" style="text;strokeColor=none;fillColor=none;align=left;verticalAlign=top;spacingLeft=4;spacingRight=4;overflow=hidden;rotatable=0;points=[[0,0.5],[1,0.5]];portConstraint=eastwest;whiteSpace=wrap;html=1;" vertex="1" parent="uWM1lojZhdCbzZa3SQIx-57">
          <mxGeometry y="98" width="200" height="42" as="geometry" />
        </mxCell>
        <mxCell id="uWM1lojZhdCbzZa3SQIx-62" style="edgeStyle=orthogonalEdgeStyle;rounded=0;orthogonalLoop=1;jettySize=auto;html=1;entryX=0;entryY=0.5;entryDx=0;entryDy=0;" edge="1" parent="WIyWlLk6GJQsqaUBKTNV-1" source="uWM1lojZhdCbzZa3SQIx-53" target="uWM1lojZhdCbzZa3SQIx-58">
          <mxGeometry relative="1" as="geometry" />
        </mxCell>
        <mxCell id="uWM1lojZhdCbzZa3SQIx-68" value="QuizManager" style="swimlane;fontStyle=1;align=center;verticalAlign=top;childLayout=stackLayout;horizontal=1;startSize=26;horizontalStack=0;resizeParent=1;resizeParentMax=0;resizeLast=0;collapsible=1;marginBottom=0;whiteSpace=wrap;html=1;" vertex="1" parent="WIyWlLk6GJQsqaUBKTNV-1">
          <mxGeometry x="20" y="-230" width="180" height="190" as="geometry" />
        </mxCell>
        <mxCell id="uWM1lojZhdCbzZa3SQIx-69" value="-currentQuestionIndex:int&lt;div&gt;-quizDuration:float&lt;/div&gt;&lt;div&gt;+csvFile:TextAsset&lt;/div&gt;" style="text;strokeColor=none;fillColor=none;align=left;verticalAlign=top;spacingLeft=4;spacingRight=4;overflow=hidden;rotatable=0;points=[[0,0.5],[1,0.5]];portConstraint=eastwest;whiteSpace=wrap;html=1;" vertex="1" parent="uWM1lojZhdCbzZa3SQIx-68">
          <mxGeometry y="26" width="180" height="64" as="geometry" />
        </mxCell>
        <mxCell id="uWM1lojZhdCbzZa3SQIx-70" value="" style="line;strokeWidth=1;fillColor=none;align=left;verticalAlign=middle;spacingTop=-1;spacingLeft=3;spacingRight=3;rotatable=0;labelPosition=right;points=[];portConstraint=eastwest;strokeColor=inherit;" vertex="1" parent="uWM1lojZhdCbzZa3SQIx-68">
          <mxGeometry y="90" width="180" height="8" as="geometry" />
        </mxCell>
        <mxCell id="uWM1lojZhdCbzZa3SQIx-71" value="-PreloadQuestions()&lt;div&gt;+StartnewQuiz(RoundQuiz)&lt;br&gt;-QuizSequence()&lt;/div&gt;&lt;div&gt;+EvaluateQuizPerformance()&lt;br&gt;+CheckAnswer(answerIndex)&lt;/div&gt;" style="text;strokeColor=none;fillColor=none;align=left;verticalAlign=top;spacingLeft=4;spacingRight=4;overflow=hidden;rotatable=0;points=[[0,0.5],[1,0.5]];portConstraint=eastwest;whiteSpace=wrap;html=1;" vertex="1" parent="uWM1lojZhdCbzZa3SQIx-68">
          <mxGeometry y="98" width="180" height="92" as="geometry" />
        </mxCell>
        <mxCell id="uWM1lojZhdCbzZa3SQIx-74" value="QuizDisplay" style="swimlane;fontStyle=1;align=center;verticalAlign=top;childLayout=stackLayout;horizontal=1;startSize=26;horizontalStack=0;resizeParent=1;resizeParentMax=0;resizeLast=0;collapsible=1;marginBottom=0;whiteSpace=wrap;html=1;" vertex="1" parent="WIyWlLk6GJQsqaUBKTNV-1">
          <mxGeometry x="-300" y="-252" width="240" height="160" as="geometry" />
        </mxCell>
        <mxCell id="uWM1lojZhdCbzZa3SQIx-75" value="-ScreenQuestion&lt;div&gt;-AnswerA/B/C/D&lt;/div&gt;&lt;div&gt;-TimerText&lt;/div&gt;" style="text;strokeColor=none;fillColor=none;align=left;verticalAlign=top;spacingLeft=4;spacingRight=4;overflow=hidden;rotatable=0;points=[[0,0.5],[1,0.5]];portConstraint=eastwest;whiteSpace=wrap;html=1;" vertex="1" parent="uWM1lojZhdCbzZa3SQIx-74">
          <mxGeometry y="26" width="240" height="64" as="geometry" />
        </mxCell>
        <mxCell id="uWM1lojZhdCbzZa3SQIx-76" value="" style="line;strokeWidth=1;fillColor=none;align=left;verticalAlign=middle;spacingTop=-1;spacingLeft=3;spacingRight=3;rotatable=0;labelPosition=right;points=[];portConstraint=eastwest;strokeColor=inherit;" vertex="1" parent="uWM1lojZhdCbzZa3SQIx-74">
          <mxGeometry y="90" width="240" height="8" as="geometry" />
        </mxCell>
        <mxCell id="uWM1lojZhdCbzZa3SQIx-77" value="+DisplayQuestion(question,currentIndex, totalQuestions)&lt;div&gt;+UpdateTimer(timeRemaining)&lt;/div&gt;" style="text;strokeColor=none;fillColor=none;align=left;verticalAlign=top;spacingLeft=4;spacingRight=4;overflow=hidden;rotatable=0;points=[[0,0.5],[1,0.5]];portConstraint=eastwest;whiteSpace=wrap;html=1;" vertex="1" parent="uWM1lojZhdCbzZa3SQIx-74">
          <mxGeometry y="98" width="240" height="62" as="geometry" />
        </mxCell>
        <mxCell id="uWM1lojZhdCbzZa3SQIx-78" style="edgeStyle=orthogonalEdgeStyle;rounded=0;orthogonalLoop=1;jettySize=auto;html=1;entryX=1;entryY=0.5;entryDx=0;entryDy=0;" edge="1" parent="WIyWlLk6GJQsqaUBKTNV-1" source="uWM1lojZhdCbzZa3SQIx-69" target="uWM1lojZhdCbzZa3SQIx-74">
          <mxGeometry relative="1" as="geometry" />
        </mxCell>
        <mxCell id="uWM1lojZhdCbzZa3SQIx-79" value="UIManager" style="swimlane;fontStyle=1;align=center;verticalAlign=top;childLayout=stackLayout;horizontal=1;startSize=26;horizontalStack=0;resizeParent=1;resizeParentMax=0;resizeLast=0;collapsible=1;marginBottom=0;whiteSpace=wrap;html=1;" vertex="1" parent="WIyWlLk6GJQsqaUBKTNV-1">
          <mxGeometry x="600" y="-245" width="270" height="220" as="geometry" />
        </mxCell>
        <mxCell id="uWM1lojZhdCbzZa3SQIx-80" value="-directionPanel&lt;div&gt;-homePromptPanel&lt;/div&gt;&lt;div&gt;-centreDisplayPanel&lt;/div&gt;&lt;div&gt;-NotificationBar&lt;/div&gt;&lt;div&gt;-DicePanel&lt;/div&gt;&lt;div&gt;-boardUI&lt;/div&gt;" style="text;strokeColor=none;fillColor=none;align=left;verticalAlign=top;spacingLeft=4;spacingRight=4;overflow=hidden;rotatable=0;points=[[0,0.5],[1,0.5]];portConstraint=eastwest;whiteSpace=wrap;html=1;" vertex="1" parent="uWM1lojZhdCbzZa3SQIx-79">
          <mxGeometry y="26" width="270" height="94" as="geometry" />
        </mxCell>
        <mxCell id="uWM1lojZhdCbzZa3SQIx-81" value="" style="line;strokeWidth=1;fillColor=none;align=left;verticalAlign=middle;spacingTop=-1;spacingLeft=3;spacingRight=3;rotatable=0;labelPosition=right;points=[];portConstraint=eastwest;strokeColor=inherit;" vertex="1" parent="uWM1lojZhdCbzZa3SQIx-79">
          <mxGeometry y="120" width="270" height="8" as="geometry" />
        </mxCell>
        <mxCell id="uWM1lojZhdCbzZa3SQIx-82" value="-GenerateUIList()&lt;div&gt;+DisplayDiceTotalResult(diceResult)&lt;/div&gt;&lt;div&gt;+DisplayPointChange(pointsChange)&lt;/div&gt;&lt;div&gt;-ChangeNotification(category)&lt;/div&gt;&lt;div&gt;+UpdateReviveCounter(playerID,reviveCounter)&lt;/div&gt;&lt;div&gt;+ShowPvPPrompt(onPlayerChoice)&lt;/div&gt;" style="text;strokeColor=none;fillColor=none;align=left;verticalAlign=top;spacingLeft=4;spacingRight=4;overflow=hidden;rotatable=0;points=[[0,0.5],[1,0.5]];portConstraint=eastwest;whiteSpace=wrap;html=1;" vertex="1" parent="uWM1lojZhdCbzZa3SQIx-79">
          <mxGeometry y="128" width="270" height="92" as="geometry" />
        </mxCell>
        <mxCell id="uWM1lojZhdCbzZa3SQIx-83" value="AvatarGenerator" style="swimlane;fontStyle=1;align=center;verticalAlign=top;childLayout=stackLayout;horizontal=1;startSize=26;horizontalStack=0;resizeParent=1;resizeParentMax=0;resizeLast=0;collapsible=1;marginBottom=0;whiteSpace=wrap;html=1;" vertex="1" parent="WIyWlLk6GJQsqaUBKTNV-1">
          <mxGeometry x="-20" y="-470" width="220" height="124" as="geometry" />
        </mxCell>
        <mxCell id="uWM1lojZhdCbzZa3SQIx-85" value="+ renderTexture:renderTexture&lt;div&gt;-avatarCamer: Camera&lt;/div&gt;" style="text;strokeColor=none;fillColor=none;align=left;verticalAlign=top;spacingLeft=4;spacingRight=4;overflow=hidden;rotatable=0;points=[[0,0.5],[1,0.5]];portConstraint=eastwest;whiteSpace=wrap;html=1;" vertex="1" parent="uWM1lojZhdCbzZa3SQIx-83">
          <mxGeometry y="26" width="220" height="64" as="geometry" />
        </mxCell>
        <mxCell id="uWM1lojZhdCbzZa3SQIx-86" value="" style="line;strokeWidth=1;fillColor=none;align=left;verticalAlign=middle;spacingTop=-1;spacingLeft=3;spacingRight=3;rotatable=0;labelPosition=right;points=[];portConstraint=eastwest;strokeColor=inherit;" vertex="1" parent="uWM1lojZhdCbzZa3SQIx-83">
          <mxGeometry y="90" width="220" height="8" as="geometry" />
        </mxCell>
        <mxCell id="uWM1lojZhdCbzZa3SQIx-87" value="+ GenerateAvatar(player,avatarIndex)" style="text;strokeColor=none;fillColor=none;align=left;verticalAlign=top;spacingLeft=4;spacingRight=4;overflow=hidden;rotatable=0;points=[[0,0.5],[1,0.5]];portConstraint=eastwest;whiteSpace=wrap;html=1;" vertex="1" parent="uWM1lojZhdCbzZa3SQIx-83">
          <mxGeometry y="98" width="220" height="26" as="geometry" />
        </mxCell>
        <mxCell id="uWM1lojZhdCbzZa3SQIx-89" style="edgeStyle=orthogonalEdgeStyle;rounded=0;orthogonalLoop=1;jettySize=auto;html=1;entryX=1;entryY=0.5;entryDx=0;entryDy=0;" edge="1" parent="WIyWlLk6GJQsqaUBKTNV-1" source="uWM1lojZhdCbzZa3SQIx-20" target="uWM1lojZhdCbzZa3SQIx-85">
          <mxGeometry relative="1" as="geometry" />
        </mxCell>
        <mxCell id="uWM1lojZhdCbzZa3SQIx-90" style="edgeStyle=orthogonalEdgeStyle;rounded=0;orthogonalLoop=1;jettySize=auto;html=1;entryX=0.475;entryY=0.984;entryDx=0;entryDy=0;entryPerimeter=0;" edge="1" parent="WIyWlLk6GJQsqaUBKTNV-1" source="uWM1lojZhdCbzZa3SQIx-79" target="uWM1lojZhdCbzZa3SQIx-87">
          <mxGeometry relative="1" as="geometry" />
        </mxCell>
        <mxCell id="uWM1lojZhdCbzZa3SQIx-96" style="edgeStyle=orthogonalEdgeStyle;rounded=0;orthogonalLoop=1;jettySize=auto;html=1;entryX=0.5;entryY=0;entryDx=0;entryDy=0;" edge="1" parent="WIyWlLk6GJQsqaUBKTNV-1" source="uWM1lojZhdCbzZa3SQIx-91" target="uWM1lojZhdCbzZa3SQIx-19">
          <mxGeometry relative="1" as="geometry" />
        </mxCell>
        <mxCell id="uWM1lojZhdCbzZa3SQIx-131" style="edgeStyle=orthogonalEdgeStyle;rounded=0;orthogonalLoop=1;jettySize=auto;html=1;entryX=1;entryY=0.5;entryDx=0;entryDy=0;" edge="1" parent="WIyWlLk6GJQsqaUBKTNV-1" source="uWM1lojZhdCbzZa3SQIx-91" target="uWM1lojZhdCbzZa3SQIx-125">
          <mxGeometry relative="1" as="geometry" />
        </mxCell>
        <mxCell id="uWM1lojZhdCbzZa3SQIx-91" value="GameInitializer" style="swimlane;fontStyle=1;align=center;verticalAlign=top;childLayout=stackLayout;horizontal=1;startSize=26;horizontalStack=0;resizeParent=1;resizeParentMax=0;resizeLast=0;collapsible=1;marginBottom=0;whiteSpace=wrap;html=1;" vertex="1" parent="WIyWlLk6GJQsqaUBKTNV-1">
          <mxGeometry x="300" y="-703" width="180" height="158" as="geometry" />
        </mxCell>
        <mxCell id="uWM1lojZhdCbzZa3SQIx-93" value="+ AllComponentsReady:bool&lt;div&gt;+ IsGameInitialized:bool&lt;/div&gt;" style="text;strokeColor=none;fillColor=none;align=left;verticalAlign=top;spacingLeft=4;spacingRight=4;overflow=hidden;rotatable=0;points=[[0,0.5],[1,0.5]];portConstraint=eastwest;whiteSpace=wrap;html=1;" vertex="1" parent="uWM1lojZhdCbzZa3SQIx-91">
          <mxGeometry y="26" width="180" height="54" as="geometry" />
        </mxCell>
        <mxCell id="uWM1lojZhdCbzZa3SQIx-94" value="" style="line;strokeWidth=1;fillColor=none;align=left;verticalAlign=middle;spacingTop=-1;spacingLeft=3;spacingRight=3;rotatable=0;labelPosition=right;points=[];portConstraint=eastwest;strokeColor=inherit;" vertex="1" parent="uWM1lojZhdCbzZa3SQIx-91">
          <mxGeometry y="80" width="180" height="8" as="geometry" />
        </mxCell>
        <mxCell id="uWM1lojZhdCbzZa3SQIx-95" value="- CheckAllComponents()&lt;div&gt;+ConfirmManagerReady(manager name)&lt;/div&gt;&lt;div&gt;+InitializeGame()&lt;/div&gt;" style="text;strokeColor=none;fillColor=none;align=left;verticalAlign=top;spacingLeft=4;spacingRight=4;overflow=hidden;rotatable=0;points=[[0,0.5],[1,0.5]];portConstraint=eastwest;whiteSpace=wrap;html=1;" vertex="1" parent="uWM1lojZhdCbzZa3SQIx-91">
          <mxGeometry y="88" width="180" height="70" as="geometry" />
        </mxCell>
        <mxCell id="uWM1lojZhdCbzZa3SQIx-98" value="NetworkManager" style="swimlane;fontStyle=1;align=center;verticalAlign=top;childLayout=stackLayout;horizontal=1;startSize=26;horizontalStack=0;resizeParent=1;resizeParentMax=0;resizeLast=0;collapsible=1;marginBottom=0;whiteSpace=wrap;html=1;" vertex="1" parent="WIyWlLk6GJQsqaUBKTNV-1">
          <mxGeometry x="590" y="-680" width="210" height="80" as="geometry" />
        </mxCell>
        <mxCell id="uWM1lojZhdCbzZa3SQIx-100" value="" style="line;strokeWidth=1;fillColor=none;align=left;verticalAlign=middle;spacingTop=-1;spacingLeft=3;spacingRight=3;rotatable=0;labelPosition=right;points=[];portConstraint=eastwest;strokeColor=inherit;" vertex="1" parent="uWM1lojZhdCbzZa3SQIx-98">
          <mxGeometry y="26" width="210" height="8" as="geometry" />
        </mxCell>
        <mxCell id="uWM1lojZhdCbzZa3SQIx-101" value="+GetRequest(url,onSuccess,onError)&lt;div&gt;+DownloadText(url,onSuccess,onError&lt;/div&gt;" style="text;strokeColor=none;fillColor=none;align=left;verticalAlign=top;spacingLeft=4;spacingRight=4;overflow=hidden;rotatable=0;points=[[0,0.5],[1,0.5]];portConstraint=eastwest;whiteSpace=wrap;html=1;" vertex="1" parent="uWM1lojZhdCbzZa3SQIx-98">
          <mxGeometry y="34" width="210" height="46" as="geometry" />
        </mxCell>
        <mxCell id="uWM1lojZhdCbzZa3SQIx-106" value="DiceManager" style="swimlane;fontStyle=1;align=center;verticalAlign=top;childLayout=stackLayout;horizontal=1;startSize=26;horizontalStack=0;resizeParent=1;resizeParentMax=0;resizeLast=0;collapsible=1;marginBottom=0;whiteSpace=wrap;html=1;" vertex="1" parent="WIyWlLk6GJQsqaUBKTNV-1">
          <mxGeometry x="10" y="30" width="190" height="160" as="geometry" />
        </mxCell>
        <mxCell id="uWM1lojZhdCbzZa3SQIx-107" value="-remainingDice:int&lt;div&gt;-totalDiceResult:int&lt;/div&gt;&lt;div&gt;-canRollDice:bool&lt;/div&gt;&lt;div&gt;-isInCombat:bool&lt;/div&gt;" style="text;strokeColor=none;fillColor=none;align=left;verticalAlign=top;spacingLeft=4;spacingRight=4;overflow=hidden;rotatable=0;points=[[0,0.5],[1,0.5]];portConstraint=eastwest;whiteSpace=wrap;html=1;" vertex="1" parent="uWM1lojZhdCbzZa3SQIx-106">
          <mxGeometry y="26" width="190" height="64" as="geometry" />
        </mxCell>
        <mxCell id="uWM1lojZhdCbzZa3SQIx-108" value="" style="line;strokeWidth=1;fillColor=none;align=left;verticalAlign=middle;spacingTop=-1;spacingLeft=3;spacingRight=3;rotatable=0;labelPosition=right;points=[];portConstraint=eastwest;strokeColor=inherit;" vertex="1" parent="uWM1lojZhdCbzZa3SQIx-106">
          <mxGeometry y="90" width="190" height="8" as="geometry" />
        </mxCell>
        <mxCell id="uWM1lojZhdCbzZa3SQIx-109" value="+EnableDiceRoll(isBossRollingDice)&lt;div&gt;+RollDice()&lt;/div&gt;&lt;div&gt;+HandleDiceResult(diceResult)&lt;/div&gt;" style="text;strokeColor=none;fillColor=none;align=left;verticalAlign=top;spacingLeft=4;spacingRight=4;overflow=hidden;rotatable=0;points=[[0,0.5],[1,0.5]];portConstraint=eastwest;whiteSpace=wrap;html=1;" vertex="1" parent="uWM1lojZhdCbzZa3SQIx-106">
          <mxGeometry y="98" width="190" height="62" as="geometry" />
        </mxCell>
        <mxCell id="uWM1lojZhdCbzZa3SQIx-110" style="edgeStyle=orthogonalEdgeStyle;rounded=0;orthogonalLoop=1;jettySize=auto;html=1;entryX=1;entryY=0.5;entryDx=0;entryDy=0;" edge="1" parent="WIyWlLk6GJQsqaUBKTNV-1" source="uWM1lojZhdCbzZa3SQIx-16" target="uWM1lojZhdCbzZa3SQIx-107">
          <mxGeometry relative="1" as="geometry">
            <Array as="points">
              <mxPoint x="255" y="-170" />
              <mxPoint x="255" y="88" />
            </Array>
          </mxGeometry>
        </mxCell>
        <mxCell id="uWM1lojZhdCbzZa3SQIx-111" value="Dice" style="swimlane;fontStyle=1;align=center;verticalAlign=top;childLayout=stackLayout;horizontal=1;startSize=26;horizontalStack=0;resizeParent=1;resizeParentMax=0;resizeLast=0;collapsible=1;marginBottom=0;whiteSpace=wrap;html=1;" vertex="1" parent="WIyWlLk6GJQsqaUBKTNV-1">
          <mxGeometry x="-250" y="40" width="190" height="140" as="geometry" />
        </mxCell>
        <mxCell id="uWM1lojZhdCbzZa3SQIx-112" value="+DiceFinishRolling&lt;div&gt;-previousTopFace:int&lt;/div&gt;" style="text;strokeColor=none;fillColor=none;align=left;verticalAlign=top;spacingLeft=4;spacingRight=4;overflow=hidden;rotatable=0;points=[[0,0.5],[1,0.5]];portConstraint=eastwest;whiteSpace=wrap;html=1;" vertex="1" parent="uWM1lojZhdCbzZa3SQIx-111">
          <mxGeometry y="26" width="190" height="54" as="geometry" />
        </mxCell>
        <mxCell id="uWM1lojZhdCbzZa3SQIx-113" value="" style="line;strokeWidth=1;fillColor=none;align=left;verticalAlign=middle;spacingTop=-1;spacingLeft=3;spacingRight=3;rotatable=0;labelPosition=right;points=[];portConstraint=eastwest;strokeColor=inherit;" vertex="1" parent="uWM1lojZhdCbzZa3SQIx-111">
          <mxGeometry y="80" width="190" height="8" as="geometry" />
        </mxCell>
        <mxCell id="uWM1lojZhdCbzZa3SQIx-114" value="+RollDice(throwForce,rollForce)&lt;div&gt;-GetCurrentTopFace()&lt;/div&gt;" style="text;strokeColor=none;fillColor=none;align=left;verticalAlign=top;spacingLeft=4;spacingRight=4;overflow=hidden;rotatable=0;points=[[0,0.5],[1,0.5]];portConstraint=eastwest;whiteSpace=wrap;html=1;" vertex="1" parent="uWM1lojZhdCbzZa3SQIx-111">
          <mxGeometry y="88" width="190" height="52" as="geometry" />
        </mxCell>
        <mxCell id="uWM1lojZhdCbzZa3SQIx-117" value="Entity" style="swimlane;fontStyle=1;align=center;verticalAlign=top;childLayout=stackLayout;horizontal=1;startSize=26;horizontalStack=0;resizeParent=1;resizeParentMax=0;resizeLast=0;collapsible=1;marginBottom=0;whiteSpace=wrap;html=1;" vertex="1" parent="WIyWlLk6GJQsqaUBKTNV-1">
          <mxGeometry x="560" y="280" width="160" height="140" as="geometry" />
        </mxCell>
        <mxCell id="uWM1lojZhdCbzZa3SQIx-118" value="+Health:int&lt;div&gt;+Status:Status&lt;/div&gt;&lt;div&gt;&lt;br&gt;&lt;/div&gt;" style="text;strokeColor=none;fillColor=none;align=left;verticalAlign=top;spacingLeft=4;spacingRight=4;overflow=hidden;rotatable=0;points=[[0,0.5],[1,0.5]];portConstraint=eastwest;whiteSpace=wrap;html=1;" vertex="1" parent="uWM1lojZhdCbzZa3SQIx-117">
          <mxGeometry y="26" width="160" height="44" as="geometry" />
        </mxCell>
        <mxCell id="uWM1lojZhdCbzZa3SQIx-119" value="" style="line;strokeWidth=1;fillColor=none;align=left;verticalAlign=middle;spacingTop=-1;spacingLeft=3;spacingRight=3;rotatable=0;labelPosition=right;points=[];portConstraint=eastwest;strokeColor=inherit;" vertex="1" parent="uWM1lojZhdCbzZa3SQIx-117">
          <mxGeometry y="70" width="160" height="8" as="geometry" />
        </mxCell>
        <mxCell id="uWM1lojZhdCbzZa3SQIx-120" value="+LoseHealth(amount)&lt;div&gt;+Dies()&lt;/div&gt;&lt;div&gt;+AddBuff(type,value,duration)&lt;/div&gt;" style="text;strokeColor=none;fillColor=none;align=left;verticalAlign=top;spacingLeft=4;spacingRight=4;overflow=hidden;rotatable=0;points=[[0,0.5],[1,0.5]];portConstraint=eastwest;whiteSpace=wrap;html=1;" vertex="1" parent="uWM1lojZhdCbzZa3SQIx-117">
          <mxGeometry y="78" width="160" height="62" as="geometry" />
        </mxCell>
        <mxCell id="uWM1lojZhdCbzZa3SQIx-122" value="" style="endArrow=block;dashed=1;endFill=0;endSize=12;html=1;rounded=0;entryX=1;entryY=0.5;entryDx=0;entryDy=0;exitX=0;exitY=0.5;exitDx=0;exitDy=0;" edge="1" parent="WIyWlLk6GJQsqaUBKTNV-1" source="uWM1lojZhdCbzZa3SQIx-118" target="uWM1lojZhdCbzZa3SQIx-1">
          <mxGeometry width="160" relative="1" as="geometry">
            <mxPoint x="490" y="380" as="sourcePoint" />
            <mxPoint x="650" y="380" as="targetPoint" />
          </mxGeometry>
        </mxCell>
        <mxCell id="uWM1lojZhdCbzZa3SQIx-123" value="" style="endArrow=block;dashed=1;endFill=0;endSize=12;html=1;rounded=0;entryX=0;entryY=0.5;entryDx=0;entryDy=0;exitX=1;exitY=0.5;exitDx=0;exitDy=0;" edge="1" parent="WIyWlLk6GJQsqaUBKTNV-1" source="uWM1lojZhdCbzZa3SQIx-118" target="uWM1lojZhdCbzZa3SQIx-5">
          <mxGeometry width="160" relative="1" as="geometry">
            <mxPoint x="760" y="450" as="sourcePoint" />
            <mxPoint x="670" y="450" as="targetPoint" />
          </mxGeometry>
        </mxCell>
        <mxCell id="uWM1lojZhdCbzZa3SQIx-124" value="ARBoardPlacement" style="swimlane;fontStyle=1;align=center;verticalAlign=top;childLayout=stackLayout;horizontal=1;startSize=26;horizontalStack=0;resizeParent=1;resizeParentMax=0;resizeLast=0;collapsible=1;marginBottom=0;whiteSpace=wrap;html=1;" vertex="1" parent="WIyWlLk6GJQsqaUBKTNV-1">
          <mxGeometry x="40" y="-680" width="160" height="140" as="geometry" />
        </mxCell>
        <mxCell id="uWM1lojZhdCbzZa3SQIx-125" value="- ARRaycastManager&lt;div&gt;- boardRoot: GameObject&lt;/div&gt;" style="text;strokeColor=none;fillColor=none;align=left;verticalAlign=top;spacingLeft=4;spacingRight=4;overflow=hidden;rotatable=0;points=[[0,0.5],[1,0.5]];portConstraint=eastwest;whiteSpace=wrap;html=1;" vertex="1" parent="uWM1lojZhdCbzZa3SQIx-124">
          <mxGeometry y="26" width="160" height="64" as="geometry" />
        </mxCell>
        <mxCell id="uWM1lojZhdCbzZa3SQIx-126" value="" style="line;strokeWidth=1;fillColor=none;align=left;verticalAlign=middle;spacingTop=-1;spacingLeft=3;spacingRight=3;rotatable=0;labelPosition=right;points=[];portConstraint=eastwest;strokeColor=inherit;" vertex="1" parent="uWM1lojZhdCbzZa3SQIx-124">
          <mxGeometry y="90" width="160" height="8" as="geometry" />
        </mxCell>
        <mxCell id="uWM1lojZhdCbzZa3SQIx-127" value="+ FingerDown()&lt;div&gt;+ ResetPlacement()&lt;/div&gt;" style="text;strokeColor=none;fillColor=none;align=left;verticalAlign=top;spacingLeft=4;spacingRight=4;overflow=hidden;rotatable=0;points=[[0,0.5],[1,0.5]];portConstraint=eastwest;whiteSpace=wrap;html=1;" vertex="1" parent="uWM1lojZhdCbzZa3SQIx-124">
          <mxGeometry y="98" width="160" height="42" as="geometry" />
        </mxCell>
        <mxCell id="uWM1lojZhdCbzZa3SQIx-130" style="edgeStyle=orthogonalEdgeStyle;rounded=0;orthogonalLoop=1;jettySize=auto;html=1;entryX=0;entryY=0.5;entryDx=0;entryDy=0;" edge="1" parent="WIyWlLk6GJQsqaUBKTNV-1" source="uWM1lojZhdCbzZa3SQIx-16" target="uWM1lojZhdCbzZa3SQIx-80">
          <mxGeometry relative="1" as="geometry" />
        </mxCell>
        <mxCell id="uWM1lojZhdCbzZa3SQIx-133" style="edgeStyle=orthogonalEdgeStyle;rounded=0;orthogonalLoop=1;jettySize=auto;html=1;entryX=0.009;entryY=0.668;entryDx=0;entryDy=0;entryPerimeter=0;" edge="1" parent="WIyWlLk6GJQsqaUBKTNV-1" source="uWM1lojZhdCbzZa3SQIx-34" target="uWM1lojZhdCbzZa3SQIx-53">
          <mxGeometry relative="1" as="geometry" />
        </mxCell>
        <mxCell id="uWM1lojZhdCbzZa3SQIx-134" style="edgeStyle=orthogonalEdgeStyle;rounded=0;orthogonalLoop=1;jettySize=auto;html=1;entryX=0.014;entryY=0.622;entryDx=0;entryDy=0;entryPerimeter=0;" edge="1" parent="WIyWlLk6GJQsqaUBKTNV-1" source="uWM1lojZhdCbzZa3SQIx-20" target="uWM1lojZhdCbzZa3SQIx-36">
          <mxGeometry relative="1" as="geometry">
            <Array as="points">
              <mxPoint x="510" y="-410" />
              <mxPoint x="510" y="-410" />
            </Array>
          </mxGeometry>
        </mxCell>
        <mxCell id="uWM1lojZhdCbzZa3SQIx-135" value="Combat Manager" style="swimlane;fontStyle=1;align=center;verticalAlign=top;childLayout=stackLayout;horizontal=1;startSize=26;horizontalStack=0;resizeParent=1;resizeParentMax=0;resizeLast=0;collapsible=1;marginBottom=0;whiteSpace=wrap;html=1;" vertex="1" parent="WIyWlLk6GJQsqaUBKTNV-1">
          <mxGeometry x="560" y="84" width="210" height="140" as="geometry" />
        </mxCell>
        <mxCell id="uWM1lojZhdCbzZa3SQIx-136" value="-arCamera:GameObject" style="text;strokeColor=none;fillColor=none;align=left;verticalAlign=top;spacingLeft=4;spacingRight=4;overflow=hidden;rotatable=0;points=[[0,0.5],[1,0.5]];portConstraint=eastwest;whiteSpace=wrap;html=1;" vertex="1" parent="uWM1lojZhdCbzZa3SQIx-135">
          <mxGeometry y="26" width="210" height="34" as="geometry" />
        </mxCell>
        <mxCell id="uWM1lojZhdCbzZa3SQIx-137" value="" style="line;strokeWidth=1;fillColor=none;align=left;verticalAlign=middle;spacingTop=-1;spacingLeft=3;spacingRight=3;rotatable=0;labelPosition=right;points=[];portConstraint=eastwest;strokeColor=inherit;" vertex="1" parent="uWM1lojZhdCbzZa3SQIx-135">
          <mxGeometry y="60" width="210" height="8" as="geometry" />
        </mxCell>
        <mxCell id="uWM1lojZhdCbzZa3SQIx-138" value="+HandleFight(FirstTA,SecondTA)&lt;br&gt;-TeleportToFrightingARea()&lt;div&gt;-CombatSequence(first,second)&lt;/div&gt;&lt;div&gt;-PerformCombatAnimation()&lt;/div&gt;" style="text;strokeColor=none;fillColor=none;align=left;verticalAlign=top;spacingLeft=4;spacingRight=4;overflow=hidden;rotatable=0;points=[[0,0.5],[1,0.5]];portConstraint=eastwest;whiteSpace=wrap;html=1;" vertex="1" parent="uWM1lojZhdCbzZa3SQIx-135">
          <mxGeometry y="68" width="210" height="72" as="geometry" />
        </mxCell>
        <mxCell id="uWM1lojZhdCbzZa3SQIx-145" style="edgeStyle=orthogonalEdgeStyle;rounded=0;orthogonalLoop=1;jettySize=auto;html=1;entryX=1.014;entryY=0.822;entryDx=0;entryDy=0;entryPerimeter=0;" edge="1" parent="WIyWlLk6GJQsqaUBKTNV-1" source="uWM1lojZhdCbzZa3SQIx-106" target="uWM1lojZhdCbzZa3SQIx-112">
          <mxGeometry relative="1" as="geometry" />
        </mxCell>
        <mxCell id="uWM1lojZhdCbzZa3SQIx-146" value="1" style="text;html=1;align=center;verticalAlign=middle;resizable=0;points=[];autosize=1;strokeColor=none;fillColor=none;" vertex="1" parent="WIyWlLk6GJQsqaUBKTNV-1">
          <mxGeometry x="275" y="-652" width="30" height="30" as="geometry" />
        </mxCell>
        <mxCell id="uWM1lojZhdCbzZa3SQIx-147" value="1" style="text;html=1;align=center;verticalAlign=middle;resizable=0;points=[];autosize=1;strokeColor=none;fillColor=none;" vertex="1" parent="WIyWlLk6GJQsqaUBKTNV-1">
          <mxGeometry x="195" y="-652" width="30" height="30" as="geometry" />
        </mxCell>
        <mxCell id="uWM1lojZhdCbzZa3SQIx-148" value="1" style="text;html=1;align=center;verticalAlign=middle;resizable=0;points=[];autosize=1;strokeColor=none;fillColor=none;" vertex="1" parent="WIyWlLk6GJQsqaUBKTNV-1">
          <mxGeometry x="385" y="-552" width="30" height="30" as="geometry" />
        </mxCell>
        <mxCell id="uWM1lojZhdCbzZa3SQIx-149" value="1" style="text;html=1;align=center;verticalAlign=middle;resizable=0;points=[];autosize=1;strokeColor=none;fillColor=none;" vertex="1" parent="WIyWlLk6GJQsqaUBKTNV-1">
          <mxGeometry x="385" y="-502" width="30" height="30" as="geometry" />
        </mxCell>
        <mxCell id="uWM1lojZhdCbzZa3SQIx-150" value="1" style="text;html=1;align=center;verticalAlign=middle;resizable=0;points=[];autosize=1;strokeColor=none;fillColor=none;" vertex="1" parent="WIyWlLk6GJQsqaUBKTNV-1">
          <mxGeometry x="475" y="-432" width="30" height="30" as="geometry" />
        </mxCell>
        <mxCell id="uWM1lojZhdCbzZa3SQIx-151" value="1" style="text;html=1;align=center;verticalAlign=middle;resizable=0;points=[];autosize=1;strokeColor=none;fillColor=none;" vertex="1" parent="WIyWlLk6GJQsqaUBKTNV-1">
          <mxGeometry x="555" y="-652" width="30" height="30" as="geometry" />
        </mxCell>
        <mxCell id="uWM1lojZhdCbzZa3SQIx-152" value="1" style="text;html=1;align=center;verticalAlign=middle;resizable=0;points=[];autosize=1;strokeColor=none;fillColor=none;" vertex="1" parent="WIyWlLk6GJQsqaUBKTNV-1">
          <mxGeometry x="565" y="-432" width="30" height="30" as="geometry" />
        </mxCell>
        <mxCell id="uWM1lojZhdCbzZa3SQIx-153" value="1" style="text;html=1;align=center;verticalAlign=middle;resizable=0;points=[];autosize=1;strokeColor=none;fillColor=none;" vertex="1" parent="WIyWlLk6GJQsqaUBKTNV-1">
          <mxGeometry x="775" y="-432" width="30" height="30" as="geometry" />
        </mxCell>
        <mxCell id="uWM1lojZhdCbzZa3SQIx-154" value="1" style="text;html=1;align=center;verticalAlign=middle;resizable=0;points=[];autosize=1;strokeColor=none;fillColor=none;" vertex="1" parent="WIyWlLk6GJQsqaUBKTNV-1">
          <mxGeometry x="835" y="-432" width="30" height="30" as="geometry" />
        </mxCell>
        <mxCell id="uWM1lojZhdCbzZa3SQIx-155" value="1" style="text;html=1;align=center;verticalAlign=middle;resizable=0;points=[];autosize=1;strokeColor=none;fillColor=none;" vertex="1" parent="WIyWlLk6GJQsqaUBKTNV-1">
          <mxGeometry x="1065" y="-442" width="30" height="30" as="geometry" />
        </mxCell>
        <mxCell id="uWM1lojZhdCbzZa3SQIx-156" value="0..*" style="text;html=1;align=center;verticalAlign=middle;resizable=0;points=[];autosize=1;strokeColor=none;fillColor=none;" vertex="1" parent="WIyWlLk6GJQsqaUBKTNV-1">
          <mxGeometry x="1140" y="-442" width="40" height="30" as="geometry" />
        </mxCell>
        <mxCell id="uWM1lojZhdCbzZa3SQIx-157" value="1" style="text;html=1;align=center;verticalAlign=middle;resizable=0;points=[];autosize=1;strokeColor=none;fillColor=none;" vertex="1" parent="WIyWlLk6GJQsqaUBKTNV-1">
          <mxGeometry x="275" y="-442" width="30" height="30" as="geometry" />
        </mxCell>
        <mxCell id="uWM1lojZhdCbzZa3SQIx-158" value="1" style="text;html=1;align=center;verticalAlign=middle;resizable=0;points=[];autosize=1;strokeColor=none;fillColor=none;" vertex="1" parent="WIyWlLk6GJQsqaUBKTNV-1">
          <mxGeometry x="195" y="-442" width="30" height="30" as="geometry" />
        </mxCell>
        <mxCell id="uWM1lojZhdCbzZa3SQIx-159" value="1" style="text;html=1;align=center;verticalAlign=middle;resizable=0;points=[];autosize=1;strokeColor=none;fillColor=none;" vertex="1" parent="WIyWlLk6GJQsqaUBKTNV-1">
          <mxGeometry x="395" y="-340" width="30" height="30" as="geometry" />
        </mxCell>
        <mxCell id="uWM1lojZhdCbzZa3SQIx-160" value="1" style="text;html=1;align=center;verticalAlign=middle;resizable=0;points=[];autosize=1;strokeColor=none;fillColor=none;" vertex="1" parent="WIyWlLk6GJQsqaUBKTNV-1">
          <mxGeometry x="385" y="-262" width="30" height="30" as="geometry" />
        </mxCell>
        <mxCell id="uWM1lojZhdCbzZa3SQIx-161" style="edgeStyle=orthogonalEdgeStyle;rounded=0;orthogonalLoop=1;jettySize=auto;html=1;entryX=1;entryY=0.5;entryDx=0;entryDy=0;" edge="1" parent="WIyWlLk6GJQsqaUBKTNV-1" source="uWM1lojZhdCbzZa3SQIx-16" target="uWM1lojZhdCbzZa3SQIx-69">
          <mxGeometry relative="1" as="geometry" />
        </mxCell>
        <mxCell id="uWM1lojZhdCbzZa3SQIx-162" value="1" style="text;html=1;align=center;verticalAlign=middle;resizable=0;points=[];autosize=1;strokeColor=none;fillColor=none;" vertex="1" parent="WIyWlLk6GJQsqaUBKTNV-1">
          <mxGeometry x="275" y="-202" width="30" height="30" as="geometry" />
        </mxCell>
        <mxCell id="uWM1lojZhdCbzZa3SQIx-163" value="1" style="text;html=1;align=center;verticalAlign=middle;resizable=0;points=[];autosize=1;strokeColor=none;fillColor=none;" vertex="1" parent="WIyWlLk6GJQsqaUBKTNV-1">
          <mxGeometry x="195" y="-202" width="30" height="30" as="geometry" />
        </mxCell>
        <mxCell id="uWM1lojZhdCbzZa3SQIx-164" value="1" style="text;html=1;align=center;verticalAlign=middle;resizable=0;points=[];autosize=1;strokeColor=none;fillColor=none;" vertex="1" parent="WIyWlLk6GJQsqaUBKTNV-1">
          <mxGeometry x="275" y="-172" width="30" height="30" as="geometry" />
        </mxCell>
        <mxCell id="uWM1lojZhdCbzZa3SQIx-165" value="1" style="text;html=1;align=center;verticalAlign=middle;resizable=0;points=[];autosize=1;strokeColor=none;fillColor=none;" vertex="1" parent="WIyWlLk6GJQsqaUBKTNV-1">
          <mxGeometry x="195" y="58" width="30" height="30" as="geometry" />
        </mxCell>
        <mxCell id="uWM1lojZhdCbzZa3SQIx-166" value="1" style="text;html=1;align=center;verticalAlign=middle;resizable=0;points=[];autosize=1;strokeColor=none;fillColor=none;" vertex="1" parent="WIyWlLk6GJQsqaUBKTNV-1">
          <mxGeometry x="485" y="-202" width="30" height="30" as="geometry" />
        </mxCell>
        <mxCell id="uWM1lojZhdCbzZa3SQIx-167" value="1" style="text;html=1;align=center;verticalAlign=middle;resizable=0;points=[];autosize=1;strokeColor=none;fillColor=none;" vertex="1" parent="WIyWlLk6GJQsqaUBKTNV-1">
          <mxGeometry x="575" y="-202" width="30" height="30" as="geometry" />
        </mxCell>
        <mxCell id="uWM1lojZhdCbzZa3SQIx-168" value="1" style="text;html=1;align=center;verticalAlign=middle;resizable=0;points=[];autosize=1;strokeColor=none;fillColor=none;" vertex="1" parent="WIyWlLk6GJQsqaUBKTNV-1">
          <mxGeometry x="705" y="-272" width="30" height="30" as="geometry" />
        </mxCell>
        <mxCell id="uWM1lojZhdCbzZa3SQIx-169" value="1" style="text;html=1;align=center;verticalAlign=middle;resizable=0;points=[];autosize=1;strokeColor=none;fillColor=none;" vertex="1" parent="WIyWlLk6GJQsqaUBKTNV-1">
          <mxGeometry x="85" y="-352" width="30" height="30" as="geometry" />
        </mxCell>
        <mxCell id="uWM1lojZhdCbzZa3SQIx-170" value="1" style="text;html=1;align=center;verticalAlign=middle;resizable=0;points=[];autosize=1;strokeColor=none;fillColor=none;" vertex="1" parent="WIyWlLk6GJQsqaUBKTNV-1">
          <mxGeometry x="385" y="-50" width="30" height="30" as="geometry" />
        </mxCell>
        <mxCell id="uWM1lojZhdCbzZa3SQIx-171" value="1" style="text;html=1;align=center;verticalAlign=middle;resizable=0;points=[];autosize=1;strokeColor=none;fillColor=none;" vertex="1" parent="WIyWlLk6GJQsqaUBKTNV-1">
          <mxGeometry x="385" y="48" width="30" height="30" as="geometry" />
        </mxCell>
        <mxCell id="uWM1lojZhdCbzZa3SQIx-172" value="1" style="text;html=1;align=center;verticalAlign=middle;resizable=0;points=[];autosize=1;strokeColor=none;fillColor=none;" vertex="1" parent="WIyWlLk6GJQsqaUBKTNV-1">
          <mxGeometry x="645" y="58" width="30" height="30" as="geometry" />
        </mxCell>
        <mxCell id="uWM1lojZhdCbzZa3SQIx-173" value="1" style="text;html=1;align=center;verticalAlign=middle;resizable=0;points=[];autosize=1;strokeColor=none;fillColor=none;" vertex="1" parent="WIyWlLk6GJQsqaUBKTNV-1">
          <mxGeometry x="845" y="58" width="30" height="30" as="geometry" />
        </mxCell>
        <mxCell id="uWM1lojZhdCbzZa3SQIx-174" value="1" style="text;html=1;align=center;verticalAlign=middle;resizable=0;points=[];autosize=1;strokeColor=none;fillColor=none;" vertex="1" parent="WIyWlLk6GJQsqaUBKTNV-1">
          <mxGeometry x="360" y="220" width="30" height="30" as="geometry" />
        </mxCell>
        <mxCell id="uWM1lojZhdCbzZa3SQIx-175" value="1" style="text;html=1;align=center;verticalAlign=middle;resizable=0;points=[];autosize=1;strokeColor=none;fillColor=none;" vertex="1" parent="WIyWlLk6GJQsqaUBKTNV-1">
          <mxGeometry x="360" y="440" width="30" height="30" as="geometry" />
        </mxCell>
        <mxCell id="uWM1lojZhdCbzZa3SQIx-176" value="1" style="text;html=1;align=center;verticalAlign=middle;resizable=0;points=[];autosize=1;strokeColor=none;fillColor=none;" vertex="1" parent="WIyWlLk6GJQsqaUBKTNV-1">
          <mxGeometry x="360" y="460" width="30" height="30" as="geometry" />
        </mxCell>
        <mxCell id="uWM1lojZhdCbzZa3SQIx-177" value="1" style="text;html=1;align=center;verticalAlign=middle;resizable=0;points=[];autosize=1;strokeColor=none;fillColor=none;" vertex="1" parent="WIyWlLk6GJQsqaUBKTNV-1">
          <mxGeometry x="845" y="418" width="30" height="30" as="geometry" />
        </mxCell>
        <mxCell id="uWM1lojZhdCbzZa3SQIx-178" value="1" style="text;html=1;align=center;verticalAlign=middle;resizable=0;points=[];autosize=1;strokeColor=none;fillColor=none;" vertex="1" parent="WIyWlLk6GJQsqaUBKTNV-1">
          <mxGeometry x="845" y="458" width="30" height="30" as="geometry" />
        </mxCell>
        <mxCell id="uWM1lojZhdCbzZa3SQIx-179" value="1" style="text;html=1;align=center;verticalAlign=middle;resizable=0;points=[];autosize=1;strokeColor=none;fillColor=none;" vertex="1" parent="WIyWlLk6GJQsqaUBKTNV-1">
          <mxGeometry x="-15" y="78" width="30" height="30" as="geometry" />
        </mxCell>
        <mxCell id="uWM1lojZhdCbzZa3SQIx-180" value="0..*" style="text;html=1;align=center;verticalAlign=middle;resizable=0;points=[];autosize=1;strokeColor=none;fillColor=none;" vertex="1" parent="WIyWlLk6GJQsqaUBKTNV-1">
          <mxGeometry x="-60" y="78" width="40" height="30" as="geometry" />
        </mxCell>
        <mxCell id="uWM1lojZhdCbzZa3SQIx-181" value="1" style="text;html=1;align=center;verticalAlign=middle;resizable=0;points=[];autosize=1;strokeColor=none;fillColor=none;" vertex="1" parent="WIyWlLk6GJQsqaUBKTNV-1">
          <mxGeometry x="-5" y="-202" width="30" height="30" as="geometry" />
        </mxCell>
        <mxCell id="uWM1lojZhdCbzZa3SQIx-182" value="1" style="text;html=1;align=center;verticalAlign=middle;resizable=0;points=[];autosize=1;strokeColor=none;fillColor=none;" vertex="1" parent="WIyWlLk6GJQsqaUBKTNV-1">
          <mxGeometry x="-65" y="-202" width="30" height="30" as="geometry" />
        </mxCell>
      </root>
    </mxGraphModel>
  </diagram>
</mxfile>
